<svg xmlns="http://www.w3.org/2000/svg" fill="none" width="200" height="200" viewBox="0 0 100 100">
  <rect width="100" height="100" fill="#5E6AD2" rx="20"/>
  <path fill="#fff" d="M15.22541 65.5228c-.2225-.9485.90748-1.5459 1.59638-.857L53.3342 101.1782c.6889.6889.0915 1.8189-.857 1.5964C34.0515 98.4522 19.54779 83.9485 15.22541 65.5228ZM14.00189135 50.8891c-.01764375.2833.08887215.5599.28957165.7606L66.3503 103.7085c.2007.2007.4773.3075.7606.2896 2.3692-.1476 4.6938-.46 6.9624-.9259.7645-.157 1.0301-1.0963.4782-1.6481L16.57595 43.4485c-.55186-.5519-1.49117-.2863-1.648174.4782-.465915 2.2686-.77832 4.5932-.92588465 6.9624ZM18.21093 33.7054c-.16649.3738-.08169.8106.20765 1.1l64.77602 64.776c.2894.2894.7262.3742 1.1.2077 1.7861-.7956 3.5171-1.6927 5.1855-2.684.5521-.328.6373-1.0867.1832-1.5407L22.43566 28.3367c-.45409-.4541-1.21271-.3689-1.54074.1832-.99132 1.6684-1.88843 3.3994-2.68399 5.1855ZM26.6587 22.074c-.3701-.3701-.393-.9637-.0443-1.3541C35.7795 10.45931 49.1114 4 63.9519 4 91.5927 4 114 26.4073 114 54.0481c0 14.8405-6.4593 28.1724-16.7199 37.3375-.3903.3487-.984.3258-1.3542-.0443L26.6587 22.074Z"/>
</svg>

